<svg width="186" height="47" viewBox="0 0 186 47" xmlns="http://www.w3.org/2000/svg" xmlns:xlink="http://www.w3.org/1999/xlink"><defs><path id="a" d="M0 47h185.103V0H0z"/></defs><g fill="none" fill-rule="evenodd"><path d="M76.054 32.202l-.742-2.44-.743 2.44h1.485zm-1.396-4.168h1.307l2.38 7.03h-1.406l-.512-1.656h-2.23l-.512 1.656h-1.407l2.38-7.03z" fill="#EF3340"/><g><path d="M81.402 31.55c0-2.352 1.567-3.596 3.324-3.596 1.527 0 2.581.783 2.913 2.128l-1.175.302c-.272-.714-.764-1.224-1.738-1.224-1.085 0-1.999.762-1.999 2.39 0 1.627.914 2.39 2 2.39.973 0 1.465-.513 1.737-1.225l1.175.302c-.332 1.344-1.386 2.128-2.913 2.128-1.757 0-3.324-1.246-3.324-3.595M88.709 30.003h1.245v.823c.362-.592.923-.904 1.497-.904.221 0 .412.041.612.101l-.23 1.155a.965.965 0 00-.524-.141c-.722 0-1.355.593-1.355 2.23v1.797H88.71v-5.061zM92.886 33.618v-3.615h1.245v3.243c0 .603.302.834.723.834.603 0 1.155-.723 1.155-2.058v-2.02h1.246v5.062h-1.246v-.812c-.372.532-.914.894-1.567.894-.903 0-1.556-.513-1.556-1.528M101.256 28.034h1.467l1.656 4.39 1.658-4.39h1.467v7.03h-1.306v-4.338l-1.347 3.696h-.944l-1.346-3.696v4.339h-1.305z" fill="#EF3340"/><mask id="b" fill="#fff"><use xlink:href="#a"/></mask><path d="M109.014 35.065h1.246v-5.061h-1.246v5.061zm-.18-6.519c0-.45.34-.803.802-.803.463 0 .804.352.804.803a.788.788 0 01-.804.804.787.787 0 01-.803-.804zM111.633 30.003h1.245v.814c.371-.534.914-.895 1.567-.895.905 0 1.557.513 1.557 1.527v3.615h-1.246v-3.243c0-.603-.301-.834-.723-.834-.603 0-1.155.723-1.155 2.06v2.017h-1.245v-5.061zM117.378 35.065h1.246v-5.061h-1.246v5.061zm-.18-6.519c0-.45.341-.803.803-.803.463 0 .803.352.803.803 0 .452-.34.804-.803.804a.787.787 0 01-.803-.804zM119.586 33.78l.995-.533c.18.492.511.834 1.005.834.29 0 .581-.151.581-.492 0-.342-.512-.553-1.044-.765-.703-.28-1.206-.702-1.206-1.485 0-.783.664-1.417 1.598-1.417.683 0 1.275.302 1.587.825l-.743.682c-.221-.321-.503-.442-.815-.442-.25 0-.492.14-.492.381 0 .221.181.403 1.035.714.723.26 1.235.673 1.235 1.425 0 .995-.723 1.638-1.727 1.638-1.124 0-1.809-.694-2.009-1.366M124.627 33.277v-2.21h-.782v-1.064h.782v-1.266l1.246-.784v2.05h1.335v1.064h-1.335v2.19c0 .623.24.823.663.823.17 0 .31-.03.481-.12l.292 1.004c-.281.131-.552.182-.824.182-1.144 0-1.858-.614-1.858-1.869M128.17 30.003h1.245v.823c.361-.592.923-.904 1.496-.904.222 0 .413.041.613.101l-.231 1.155a.963.963 0 00-.522-.141c-.724 0-1.356.593-1.356 2.23v1.797h-1.246v-5.061zM136.828 30.003l-2.611 7.111h-1.206l.864-2.391-1.828-4.72h1.255l1.156 3.113 1.124-3.113zM23.146 12.049c-1.17 0-1.985.853-2.163 1.905h4.306c-.277-1.27-.992-1.905-2.143-1.905" fill="#EF3340" mask="url(#b)"/><path d="M55.897 19.293c-.655.654-1.508.972-2.56.972-.953 0-1.787-.278-2.481-.814-.695-.536-1.191-1.17-1.489-1.886l1.965-1.05c.397 1.09 1.072 1.645 2.006 1.645.812 0 1.23-.357 1.23-1.07 0-.318-.16-.576-.537-.754-.179-.1-.377-.18-.555-.239-.338-.159-1.033-.377-1.41-.536-1.269-.536-2.024-1.27-2.024-2.7 0-.813.299-1.486.894-2.063.594-.576 1.37-.853 2.302-.853 1.33 0 2.5.655 3.135 1.627l-1.468 1.35c-.456-.575-1.011-.874-1.667-.874-.497 0-.913.299-.913.834 0 .417.318.734.953.972l.714.259.853.297c.16.06.397.199.715.377.337.18.574.338.714.517.298.337.615.932.615 1.627 0 .932-.337 1.707-.992 2.362zm-8.357.813h-2.46v-1.608c-.815 1.17-1.848 1.767-3.097 1.767-1.846 0-3.076-1.052-3.076-3.017v-7.144h2.46v6.41c0 1.091.477 1.648 1.43 1.648 1.27 0 2.283-1.549 2.283-4.07v-3.988h2.46v10.002zm-11.77-.813c-.654.654-1.51.972-2.56.972-.952 0-1.786-.278-2.48-.814-.696-.536-1.192-1.17-1.49-1.886l1.965-1.05c.396 1.09 1.073 1.645 2.005 1.645.813 0 1.23-.357 1.23-1.07 0-.318-.16-.576-.535-.754a3.22 3.22 0 00-.556-.239c-.338-.159-1.033-.377-1.409-.536-1.27-.536-2.024-1.27-2.024-2.7 0-.813.297-1.486.892-2.063.595-.576 1.37-.853 2.302-.853 1.33 0 2.502.655 3.137 1.627l-1.47 1.35c-.456-.575-1.011-.874-1.667-.874-.496 0-.912.299-.912.834 0 .417.317.734.952.972l.715.259.853.297c.159.06.398.199.715.377.337.18.575.338.714.517.298.337.614.932.614 1.627 0 .932-.337 1.707-.99 2.362zm-7.96-3.395h-6.887c.06 1.21.933 2.262 2.362 2.262 1.012 0 1.827-.516 2.422-1.547l1.984.735c-.855 1.945-2.362 2.917-4.545 2.917-3.433 0-4.804-2.778-4.804-5.16s1.371-5.16 4.804-5.16c1.587 0 2.878.655 3.593 1.667a5.573 5.573 0 011.07 3.274v1.012zm-11.711-.675c0 3.593-1.547 5.042-4.425 5.042-2.401 0-3.99-1.35-4.288-3.593l2.542-.536c.217 1.172.812 1.747 1.746 1.747 1.19 0 1.845-.635 1.845-2.38v-9.29h2.58v9.01zM61.154 0H3.121A3.12 3.12 0 000 3.12v23.877a3.12 3.12 0 002.28 3.005l60.499 16.954a1.178 1.178 0 001.496-1.135V3.12A3.12 3.12 0 0061.155 0zM72.178 20.105h2.58v-5.953h5.002V11.77h-5.001V8.596h6.21V6.212h-8.791zM83.227 6.224a1.429 1.429 0 000 2.002 1.429 1.429 0 002.002 0 1.429 1.429 0 000-2.002 1.431 1.431 0 00-2.002 0M82.999 20.106h2.46V10.104H83zM88.157 20.106h2.46V6.055h-2.46zM104.411 9.944c-1.27 0-2.282.695-3.056 2.064-.417-1.369-1.508-2.064-2.799-2.064-1.13 0-2.103.597-2.876 1.766v-1.607h-2.462v10.003h2.462v-3.672c0-2.858.893-4.386 2.163-4.386.814 0 1.23.457 1.23 1.39v6.668h2.462v-3.89c0-2.699.892-4.168 2.161-4.168.815 0 1.233.457 1.233 1.39v6.668h2.46V13.02c0-1.926-1.132-3.077-2.978-3.077M120.441 12.286h-2.559V8.595h2.56c1.21 0 1.827.614 1.827 1.845 0 1.231-.617 1.846-1.828 1.846m.1-6.073h-5.24v13.893h2.581v-5.438h2.66c2.838 0 4.346-1.687 4.346-4.228 0-2.54-1.508-4.227-4.347-4.227M129.216 11.73v-1.627h-2.462v10.003h2.462v-3.553c0-3.037 1.111-4.407 2.678-4.407.38 0 .735.1 1.033.279l.457-2.282a3.962 3.962 0 00-1.21-.199c-1.172 0-2.243.655-2.958 1.786M141.463 17.287c-.456.577-1.05.874-1.826.874-.773 0-1.37-.297-1.826-.874-.456-.596-.674-1.33-.674-2.183 0-.853.218-1.587.674-2.163.457-.596 1.053-.894 1.826-.894.775 0 1.37.298 1.826.894.458.576.675 1.31.675 2.163 0 .854-.217 1.587-.675 2.183m1.886-5.874c-.914-.973-2.143-1.469-3.712-1.469-1.567 0-2.798.496-3.71 1.469-.914.972-1.37 2.203-1.37 3.691 0 1.489.456 2.74 1.37 3.712.912.972 2.143 1.448 3.71 1.448 1.569 0 2.798-.476 3.712-1.448.912-.972 1.37-2.223 1.37-3.712 0-1.488-.458-2.72-1.37-3.691M147.04 19.252c0 1.767-.753 2.5-2.322 2.898l.595 2.162c2.858-.653 4.189-2.242 4.189-5.359v-8.85h-2.462v9.15zM154.06 13.954c.18-1.052.993-1.906 2.164-1.906 1.15 0 1.866.635 2.143 1.906h-4.306zm2.164-4.01c-3.434 0-4.803 2.779-4.803 5.16 0 2.382 1.369 5.16 4.803 5.16 2.183 0 3.691-.971 4.545-2.917l-1.984-.735c-.597 1.032-1.41 1.548-2.421 1.548-1.43 0-2.303-1.052-2.363-2.262h6.887v-1.012a5.572 5.572 0 00-1.073-3.275c-.713-1.013-2.004-1.666-3.591-1.666zM167.443 12.048c1.01 0 1.806.556 2.34 1.646l2.204-.893c-.774-1.904-2.282-2.856-4.544-2.856-1.568 0-2.76.494-3.613 1.468-.853.972-1.27 2.203-1.27 3.692 0 1.488.417 2.718 1.27 3.691.854.973 2.045 1.469 3.613 1.469 2.262 0 3.77-.953 4.544-2.858l-2.203-.894c-.535 1.092-1.33 1.647-2.341 1.647-1.508 0-2.303-1.23-2.303-3.055 0-1.827.795-3.057 2.303-3.057M179.645 17.922a1.997 1.997 0 01-.953.24c-.874 0-1.31-.438-1.31-1.63v-4.326h2.64v-2.103h-2.64V6.054l-2.461 1.548v2.501h-1.549v2.103h1.549v4.367c0 2.44 1.37 3.691 3.671 3.691.577 0 1.111-.118 1.627-.357l-.574-1.985zM147.27 6.223a1.429 1.429 0 000 2.002 1.429 1.429 0 002.002 0 1.429 1.429 0 000-2.002 1.431 1.431 0 00-2.002 0M183.166 8.03c.228 0 .343-.114.343-.306s-.115-.307-.343-.307h-.39v.614h.39zm-.775-.94h.796c.442 0 .702.244.702.634 0 .328-.198.55-.484.612l.633.95h-.41l-.618-.929h-.234v.93h-.385V7.09zm.744-.525c-.92 0-1.564.701-1.564 1.632 0 .93.644 1.631 1.564 1.631s1.563-.701 1.563-1.63c0-.932-.644-1.633-1.563-1.633zm0-.395c1.106-.015 1.983.894 1.969 2.027.014 1.138-.863 2.046-1.969 2.026-1.107.02-1.984-.888-1.97-2.026-.014-1.133.863-2.042 1.97-2.027z" fill="#EF3340" mask="url(#b)"/></g></g></svg>